<?xml version="1.0" standalone="no"?>
<!DOCTYPE svg PUBLIC "-//W3C//DTD SVG 20010904//EN"
 "http://www.w3.org/TR/2001/REC-SVG-20010904/DTD/svg10.dtd">
<svg version="1.0" xmlns="http://www.w3.org/2000/svg"
 width="700.000000pt" height="700.000000pt" viewBox="0 0 700.000000 700.000000"
 preserveAspectRatio="xMidYMid meet">
<metadata>
Created by potrace 1.14, written by Peter Selinger 2001-2017
</metadata>
<g transform="translate(0.000000,700.000000) scale(0.100000,-0.100000)"
fill="#000000" stroke="none">
<path d="M3278 6995 c-1 -1 -42 -5 -89 -9 -47 -4 -95 -8 -105 -10 -10 -2 -41
-7 -69 -10 -415 -54 -866 -208 -1245 -424 -86 -49 -301 -187 -339 -218 -9 -7
-52 -41 -96 -75 -432 -336 -819 -832 -1029 -1319 -16 -36 -35 -78 -42 -95 -54
-120 -153 -432 -180 -570 -2 -11 -10 -54 -19 -95 -29 -147 -36 -200 -52 -370
-15 -165 -8 -592 12 -711 2 -13 6 -46 9 -74 9 -78 22 -152 51 -285 21 -96 91
-339 114 -395 5 -11 29 -74 55 -141 55 -142 169 -372 246 -497 30 -48 60 -95
65 -105 25 -44 135 -194 212 -289 167 -206 340 -378 553 -548 92 -74 370 -265
386 -265 4 0 15 -6 23 -14 29 -25 305 -161 431 -213 279 -113 566 -191 839
-229 25 -3 57 -8 71 -10 163 -25 682 -25 842 1 13 2 46 7 73 10 71 10 87 13
115 18 14 3 43 8 65 12 22 4 76 16 120 27 44 10 87 21 96 23 25 5 157 45 219
65 178 57 568 235 660 300 15 11 33 20 39 20 6 0 11 5 11 10 0 6 4 10 9 10 16
0 212 134 322 220 157 122 331 284 459 429 36 41 70 79 76 85 6 6 48 61 94
121 152 200 276 403 388 638 29 59 52 110 52 113 0 3 8 24 19 47 53 118 147
417 177 562 17 81 54 301 59 350 4 33 9 71 11 85 9 47 11 525 3 605 -15 165
-21 220 -24 225 -2 3 -6 30 -10 60 -4 30 -22 123 -40 205 -53 232 -102 385
-197 610 -387 912 -1160 1626 -2103 1943 -168 57 -420 119 -555 137 -19 3 -46
7 -60 10 -13 2 -52 7 -86 11 -33 3 -74 8 -90 10 -33 5 -540 14 -546 9z m752
-1380 c0 -5 -7 -48 -14 -95 -8 -47 -17 -101 -20 -120 -3 -19 -10 -60 -16 -90
-6 -30 -13 -71 -16 -90 -5 -32 -12 -77 -29 -180 -12 -67 -64 -375 -69 -407 -8
-47 -14 -79 -25 -153 -6 -36 -13 -76 -16 -90 -2 -13 -7 -40 -10 -60 -3 -19
-16 -95 -29 -167 l-22 -133 429 0 c468 0 476 -1 513 -58 23 -34 26 -90 7 -126
-14 -27 -1059 -1769 -1096 -1827 -8 -13 -26 -42 -39 -65 -12 -23 -78 -133
-146 -245 -147 -244 -140 -232 -174 -287 l-27 -45 -127 -1 c-83 -1 -128 3
-131 10 -2 6 19 150 47 320 29 170 53 320 55 334 2 14 11 70 21 125 9 55 17
107 19 115 2 16 15 92 21 125 2 11 7 40 10 65 3 25 8 54 10 65 3 11 7 36 10
55 3 19 11 69 19 111 8 42 17 98 20 125 4 27 11 67 16 89 4 22 9 43 9 48 0 4
-193 7 -429 7 -479 -1 -470 -3 -511 67 -17 29 -20 46 -15 77 4 29 215 389 737
1261 402 671 737 1227 744 1236 11 12 38 15 144 15 80 -1 130 -5 130 -11z"/>
</g>
</svg>
